<svg width="16" height="16" viewBox="0 0 16 16" fill="none" xmlns="http://www.w3.org/2000/svg">
<path d="M10.667 7.99945C10.6673 8.44142 10.492 8.86539 10.1797 9.17812L7.3576 11.9996C6.967 12.3902 6.33367 12.39 5.94319 11.9993C5.55283 11.6088 5.55281 10.9756 5.94327 10.5852L7.82189 8.70656C8.21241 8.31604 8.21241 7.68287 7.82189 7.29235L6.88266 6.35312L5.94327 5.41373C5.55281 5.02327 5.55279 4.39017 5.94316 3.99962C6.33366 3.60894 6.96701 3.6088 7.3576 3.99939L10.179 6.82079C10.3337 6.97558 10.4565 7.15934 10.5402 7.36158C10.624 7.56382 10.667 7.78057 10.667 7.99945Z" fill="#E81A3B"/>
</svg>
