<svg width="19" height="16" viewBox="0 0 19 16" fill="none" xmlns="http://www.w3.org/2000/svg">
<path d="M12.8767 0.661445V0.658203H13.7207L14.029 0.719795C14.2346 0.759781 14.4213 0.812183 14.589 0.877017C14.7567 0.94185 14.9191 1.01749 15.0759 1.10393C15.2328 1.19037 15.3751 1.27845 15.5028 1.36813C15.6294 1.45674 15.743 1.55075 15.8437 1.65016C15.9432 1.75065 16.0985 1.77658 16.3095 1.72796C16.5205 1.67933 16.7477 1.61179 16.9912 1.52535C17.2346 1.43891 17.4754 1.34166 17.7135 1.2336C17.9515 1.12554 18.0965 1.05693 18.1485 1.02775C18.1993 0.99751 18.2264 0.981302 18.2296 0.97913L18.2328 0.974267L18.2491 0.966163L18.2653 0.958059L18.2815 0.949954L18.2978 0.94185L18.301 0.936988L18.3059 0.933746L18.3108 0.930504L18.314 0.925642L18.3302 0.920779L18.3465 0.917538L18.3432 0.94185L18.3383 0.966163L18.3302 0.990476L18.3221 1.01479L18.314 1.031L18.3059 1.0472L18.2978 1.07152C18.2924 1.08773 18.287 1.10933 18.2815 1.13635C18.2761 1.16337 18.2247 1.27142 18.1273 1.46052C18.03 1.64962 17.9082 1.84142 17.7621 2.03592C17.6161 2.23042 17.4851 2.37736 17.3694 2.47679C17.2525 2.57728 17.1751 2.64751 17.1373 2.6875C17.0994 2.72855 17.0534 2.76637 16.9993 2.80095L16.9181 2.85444L16.9019 2.86255L16.8857 2.87065L16.8824 2.87551L16.8776 2.87876L16.8727 2.882L16.8694 2.88686L16.8532 2.89496L16.837 2.90307L16.8338 2.90793L16.8289 2.91117L16.824 2.91441L16.8208 2.91928L16.8175 2.92414L16.8126 2.92738L16.8078 2.93062L16.8045 2.93548H16.8857L17.3401 2.83823C17.6431 2.7734 17.9326 2.69507 18.2085 2.60321L18.6467 2.45734L18.6954 2.44113L18.7198 2.43302L18.736 2.42492L18.7522 2.41682L18.7685 2.40871L18.7847 2.40061L18.8171 2.39574L18.8496 2.3925V2.42492L18.8415 2.42816L18.8334 2.43302L18.8301 2.43789L18.8253 2.44113L18.8204 2.44437L18.8171 2.44923L18.8139 2.45409L18.809 2.45734L18.8042 2.46058L18.8009 2.46544L18.7977 2.4703L18.7928 2.47354L18.7847 2.48975L18.7766 2.50596L18.7717 2.5092C18.7695 2.51244 18.7008 2.60428 18.5656 2.78475C18.4303 2.96628 18.3573 3.05812 18.3465 3.06029C18.3356 3.06353 18.3205 3.07974 18.301 3.10891C18.2826 3.13916 18.1679 3.25965 17.9569 3.47036C17.7459 3.68107 17.5393 3.86854 17.3369 4.03279C17.1335 4.19812 17.0307 4.40126 17.0285 4.64223C17.0253 4.88211 17.0128 5.15335 16.9912 5.45589C16.9695 5.75845 16.929 6.08531 16.8694 6.4365C16.8099 6.78769 16.718 7.18479 16.5935 7.62782C16.4691 8.07084 16.3176 8.50307 16.1391 8.92449C15.9605 9.34591 15.7739 9.7241 15.5791 10.0591C15.3843 10.3941 15.2058 10.6777 15.0435 10.91C14.8812 11.1423 14.7162 11.3611 14.5484 11.5665C14.3807 11.7718 14.1687 12.003 13.9122 12.2602C13.6547 12.5163 13.514 12.6568 13.4902 12.6816C13.4653 12.7054 13.3593 12.794 13.1721 12.9474C12.986 13.1019 12.7858 13.2564 12.5715 13.411C12.3584 13.5644 12.1625 13.6925 11.984 13.7951C11.8054 13.8978 11.5901 14.015 11.338 14.1468C11.087 14.2797 10.8153 14.4029 10.5232 14.5164C10.231 14.6299 9.92265 14.7352 9.59803 14.8325C9.27341 14.9297 8.95962 15.0054 8.65664 15.0594C8.35368 15.1134 8.01012 15.1593 7.62598 15.1971L7.04979 15.2539V15.262H5.99479V15.2539L5.85682 15.2458C5.76486 15.2404 5.68911 15.235 5.62959 15.2296C5.57009 15.2242 5.34555 15.1944 4.95601 15.1404C4.56647 15.0864 4.2608 15.0324 4.03897 14.9783C3.81716 14.9243 3.48712 14.8216 3.04889 14.6704C2.61066 14.5191 2.23572 14.3662 1.92409 14.2117C1.61355 14.0582 1.41878 13.961 1.33978 13.9199C1.26187 13.8799 1.17423 13.8302 1.07684 13.7708L0.930764 13.6817L0.927534 13.6768L0.922648 13.6736L0.917779 13.6703L0.914533 13.6655L0.898302 13.6573L0.882071 13.6492L0.878841 13.6444L0.873956 13.6411L0.869086 13.6379L0.86584 13.633L0.86261 13.6282L0.857725 13.6249H0.849609V13.5925L0.86584 13.5958L0.882071 13.6006L0.95511 13.6087C1.0038 13.6141 1.13636 13.6222 1.35277 13.633C1.56919 13.6438 1.79911 13.6438 2.04258 13.633C2.28604 13.6222 2.53492 13.5979 2.78919 13.5601C3.04348 13.5223 3.34375 13.4574 3.69001 13.3656C4.03627 13.2737 4.3544 13.1646 4.6444 13.0382C4.9333 12.9107 5.13888 12.8156 5.26117 12.7529C5.38235 12.6913 5.56738 12.5768 5.81625 12.4093L6.18956 12.1581L6.1928 12.1532L6.19767 12.15L6.20256 12.1467L6.20579 12.1419L6.20903 12.137L6.2139 12.1338L6.21879 12.1305L6.22202 12.1257L6.23825 12.1208L6.25448 12.1175L6.25772 12.1013L6.26259 12.0851L6.26748 12.0819L6.27071 12.077L6.14086 12.0689C6.0543 12.0635 5.97044 12.0581 5.88928 12.0527C5.80813 12.0473 5.68099 12.023 5.50786 11.9798C5.33474 11.9365 5.14809 11.8717 4.9479 11.7853C4.74772 11.6988 4.55295 11.5962 4.36359 11.4773C4.17424 11.3585 4.03735 11.2596 3.95295 11.1807C3.86963 11.1029 3.76142 10.9927 3.62833 10.85C3.49632 10.7063 3.38162 10.5588 3.28424 10.4076C3.18685 10.2563 3.0938 10.0818 3.00508 9.88403L2.87035 9.58904L2.86223 9.56472L2.85412 9.54041L2.84925 9.5242L2.846 9.50799L2.87035 9.51124L2.8947 9.5161L3.07323 9.54041C3.19227 9.55662 3.37893 9.56202 3.6332 9.55662C3.88749 9.55122 4.06332 9.54041 4.1607 9.5242C4.25809 9.50799 4.3176 9.49718 4.33924 9.49179L4.3717 9.48368L4.41228 9.47558L4.45286 9.46747L4.4561 9.46261L4.46097 9.45937L4.46586 9.45613L4.46909 9.45126L4.43662 9.44316L4.40416 9.43506L4.3717 9.42695L4.33924 9.41885L4.30678 9.41074C4.28514 9.40535 4.24728 9.39454 4.19316 9.37833C4.13906 9.36212 3.99299 9.30268 3.75493 9.20003C3.51689 9.09739 3.32752 8.99743 3.18685 8.90018C3.04583 8.80265 2.91137 8.69598 2.78433 8.58087C2.65772 8.46417 2.51869 8.31397 2.36719 8.13028C2.21571 7.94659 2.08046 7.73317 1.96142 7.49005C1.8424 7.24692 1.75313 7.01461 1.69361 6.79309C1.63433 6.57287 1.59522 6.34773 1.57677 6.12044L1.54754 5.78006L1.56377 5.7833L1.58 5.78816L1.59623 5.79627L1.61246 5.80437L1.62869 5.81248L1.64492 5.82058L1.8965 5.93404C2.06423 6.00968 2.27252 6.07452 2.52139 6.12854C2.77027 6.18256 2.91904 6.21229 2.96773 6.21769L3.04077 6.22579H3.18685L3.18362 6.22093L3.17873 6.21769L3.17387 6.21445L3.17062 6.20958L3.16739 6.20472L3.1625 6.20148L3.15763 6.19824L3.15439 6.19337L3.13816 6.18527L3.12193 6.17717L3.1187 6.1723L3.11381 6.16906L3.10894 6.16582L3.1057 6.16096L3.08947 6.15285L3.07323 6.14475L3.07 6.13989C3.06676 6.13772 3.02022 6.10314 2.9304 6.03615C2.84167 5.96808 2.74862 5.88002 2.65123 5.77196C2.55385 5.66389 2.45646 5.55044 2.35908 5.43158C2.26151 5.31245 2.17461 5.185 2.09938 5.05068C2.02365 4.91562 1.94357 4.74379 1.85917 4.53525C1.77585 4.32779 1.71255 4.1187 1.66927 3.90799C1.626 3.69728 1.60165 3.48928 1.59623 3.28397C1.59082 3.07865 1.59623 2.90307 1.61246 2.75719C1.62869 2.61132 1.66115 2.44653 1.70984 2.26284C1.75854 2.07915 1.82888 1.88464 1.92084 1.67933L2.05881 1.37137L2.06692 1.34706L2.07504 1.32275L2.07992 1.31951L2.08315 1.31464L2.0864 1.30978L2.09127 1.30654L2.09615 1.30978L2.09938 1.31464L2.10263 1.31951L2.1075 1.32275L2.11238 1.32599L2.11561 1.33085L2.11886 1.33571L2.12373 1.33896L2.13185 1.35516L2.13996 1.37137L2.14485 1.37461L2.14808 1.37948L2.36719 1.6226C2.51327 1.78469 2.6864 1.96569 2.88658 2.16559C3.08677 2.36548 3.19768 2.46922 3.21931 2.47679C3.24096 2.48543 3.268 2.51027 3.30047 2.55135C3.33293 2.59133 3.44114 2.68696 3.62508 2.83823C3.80904 2.98951 4.0498 3.16511 4.34736 3.36501C4.64493 3.56491 4.97495 3.76211 5.33744 3.95661C5.69994 4.15112 6.08948 4.3267 6.50606 4.48339C6.92265 4.64007 7.21481 4.74272 7.38252 4.79135C7.55025 4.83997 7.83699 4.9021 8.24276 4.97774C8.64853 5.05339 8.95422 5.10201 9.1598 5.12362C9.36539 5.14523 9.50607 5.15766 9.5818 5.1609L9.69542 5.16414L9.69219 5.13983L9.6873 5.11552L9.65484 4.91291C9.6332 4.77785 9.62238 4.58874 9.62238 4.34562C9.62238 4.10249 9.64132 3.87828 9.67919 3.67297C9.71707 3.46766 9.77388 3.25965 9.84961 3.04894C9.92536 2.83823 9.99949 2.66912 10.072 2.54162C10.1456 2.41519 10.2419 2.27094 10.3609 2.10886C10.4799 1.94677 10.6341 1.77929 10.8235 1.6064C11.0128 1.4335 11.2292 1.27952 11.4727 1.14446C11.7162 1.00939 11.9407 0.906727 12.1463 0.836496C12.3519 0.766265 12.525 0.72033 12.6657 0.698724C12.8063 0.677118 12.8767 0.664686 12.8767 0.661445Z" fill="#657C91"/>
</svg>
