<svg width="24" height="24" viewBox="0 0 24 24" fill="none" xmlns="http://www.w3.org/2000/svg">
<path d="M4 10.1431C4 5.64564 7.58172 1.99976 12 1.99976C16.4183 1.99976 20 5.64564 20 10.1431C20 14.6053 17.4467 19.8122 13.4629 21.6742C12.5343 22.1083 11.4657 22.1083 10.5371 21.6742C6.55332 19.8122 4 14.6053 4 10.1431Z" stroke="#E81A3B" stroke-width="1.5"/>
<path d="M12 12.9998C13.6569 12.9998 15 11.6566 15 9.99976C15 8.3429 13.6569 6.99976 12 6.99976C10.3431 6.99976 9 8.3429 9 9.99976C9 11.6566 10.3431 12.9998 12 12.9998Z" stroke="#E81A3B" stroke-width="1.5"/>
</svg>
