<svg width="19" height="20" viewBox="0 0 19 20" fill="none" xmlns="http://www.w3.org/2000/svg">
<path fill-rule="evenodd" clip-rule="evenodd" d="M0.849609 9.95898C0.849609 6.36384 0.849609 4.56628 1.7063 3.27154C2.08886 2.69337 2.584 2.19823 3.16216 1.81568C4.4569 0.958984 6.25447 0.958984 9.84961 0.958984C13.4447 0.958984 15.2423 0.958984 16.5371 1.81568C17.1152 2.19823 17.6104 2.69337 17.9929 3.27154C18.8496 4.56628 18.8496 6.36384 18.8496 9.95898C18.8496 13.5541 18.8496 15.3517 17.9929 16.6464C17.6104 17.2246 17.1152 17.7197 16.5371 18.1023C15.2423 18.959 13.4447 18.959 9.84961 18.959C6.25447 18.959 4.4569 18.959 3.16216 18.1023C2.584 17.7197 2.08886 17.2246 1.7063 16.6464C0.849609 15.3517 0.849609 13.5541 0.849609 9.95898ZM14.5092 9.95824C14.5092 12.5316 12.4232 14.6176 9.84984 14.6176C7.27652 14.6176 5.19043 12.5316 5.19043 9.95824C5.19043 7.38492 7.27652 5.29883 9.84984 5.29883C12.4232 5.29883 14.5092 7.38492 14.5092 9.95824ZM9.84984 13.0412C11.5525 13.0412 12.9328 11.6609 12.9328 9.95824C12.9328 8.25554 11.5525 6.87523 9.84984 6.87523C8.14714 6.87523 6.76684 8.25554 6.76684 9.95824C6.76684 11.6609 8.14714 13.0412 9.84984 13.0412ZM14.6932 6.16035C15.2979 6.16035 15.7881 5.67018 15.7881 5.06553C15.7881 4.46087 15.2979 3.9707 14.6932 3.9707C14.0886 3.9707 13.5984 4.46087 13.5984 5.06553C13.5984 5.67018 14.0886 6.16035 14.6932 6.16035Z" fill="#657C91"/>
</svg>
