<svg width="17" height="17" viewBox="0 0 17 17" fill="none" xmlns="http://www.w3.org/2000/svg">
<path d="M15.2594 8.04484C15.2594 8.92031 15.087 9.78724 14.752 10.596C14.4169 11.4049 13.9259 12.1398 13.3068 12.7589C12.6878 13.378 11.9528 13.869 11.144 14.204C10.3352 14.539 9.46824 14.7115 8.59278 14.7115C7.71731 14.7115 6.85039 14.539 6.04156 14.204C5.23272 13.869 4.49779 13.378 3.87873 12.7589C3.25968 12.1398 2.76861 11.4049 2.43358 10.596C2.09855 9.78724 1.92611 8.92031 1.92611 8.04484C1.92611 7.16937 2.09855 6.30245 2.43358 5.49361C2.76861 4.68478 3.25968 3.94985 3.87873 3.33079C4.49779 2.71174 5.23272 2.22067 6.04156 1.88564C6.85039 1.55061 7.71731 1.37817 8.59278 1.37817C9.46824 1.37817 10.3352 1.55061 11.144 1.88565C11.9528 2.22067 12.6878 2.71174 13.3068 3.33079C13.9259 3.94985 14.4169 4.68478 14.752 5.49362C15.087 6.30245 15.2594 7.16937 15.2594 8.04484Z" stroke="black"/>
<path d="M11.2594 8.04484C11.2594 8.92031 11.1904 9.78724 11.0564 10.596C10.9224 11.4049 10.726 12.1398 10.4784 12.7589C10.2308 13.378 9.93678 13.869 9.61324 14.204C9.28971 14.539 8.94298 14.7115 8.59278 14.7115C8.24258 14.7115 7.89584 14.539 7.57231 14.204C7.24875 13.869 6.95478 13.378 6.70716 12.7589C6.45954 12.1398 6.26311 11.4049 6.1291 10.596C5.99508 9.78724 5.92611 8.92031 5.92611 8.04484C5.92611 7.16937 5.99508 6.30245 6.1291 5.49361C6.26311 4.68478 6.45954 3.94985 6.70716 3.33079C6.95478 2.71174 7.24875 2.22067 7.57231 1.88564C7.89584 1.55061 8.24258 1.37817 8.59278 1.37817C8.94298 1.37817 9.28971 1.55061 9.61324 1.88565C9.93678 2.22067 10.2308 2.71174 10.4784 3.33079C10.726 3.94985 10.9224 4.68478 11.0564 5.49362C11.1904 6.30245 11.2594 7.16937 11.2594 8.04484Z" stroke="black"/>
<path d="M1.92611 8.04492H15.2594Z" fill="black"/>
<path d="M1.92611 8.04492H15.2594" stroke="black" stroke-linecap="round"/>
</svg>
