<svg width="21" height="16" viewBox="0 0 21 16" fill="none" xmlns="http://www.w3.org/2000/svg">
<path d="M11.2879 14.9392L7.22568 14.8632C5.91044 14.8368 4.59191 14.8896 3.30246 14.6155C1.34089 14.206 1.20193 12.1981 1.05652 10.5138C0.856153 8.14601 0.933719 5.73519 1.31183 3.38711C1.52528 2.0696 2.36532 1.28343 3.6644 1.19788C8.04975 0.887401 12.4643 0.924196 16.8399 1.06904C17.302 1.08232 17.7673 1.1549 18.223 1.23751C20.4723 1.64043 20.5271 3.91582 20.673 5.83128C20.8184 7.7665 20.757 9.71166 20.479 11.6337C20.2561 13.2251 19.8295 14.5597 18.0291 14.6885C15.7733 14.8569 13.5693 14.9926 11.3072 14.9494C11.3073 14.9392 11.2943 14.9392 11.2879 14.9392ZM8.8997 10.9102C10.5996 9.91276 12.2671 8.93198 13.9573 7.94125C12.2542 6.94384 10.5899 5.96305 8.8997 4.97233V10.9102Z" fill="#657C91"/>
</svg>
