<svg width="19" height="19" viewBox="0 0 19 19" fill="none" xmlns="http://www.w3.org/2000/svg">
<path d="M0.849609 2.88001C0.849609 2.3028 1.05232 1.82661 1.45772 1.45144C1.86312 1.07626 2.39016 0.888672 3.0388 0.888672C3.67587 0.888672 4.1913 1.07336 4.58513 1.44278C4.99053 1.82374 5.19324 2.32012 5.19324 2.93196C5.19324 3.48607 4.99633 3.94782 4.6025 4.31724C4.19711 4.69819 3.66428 4.88867 3.00405 4.88867H2.98668C2.3496 4.88867 1.83417 4.69819 1.44034 4.31724C1.04651 3.93629 0.849609 3.45721 0.849609 2.88001ZM1.07548 18.0315V6.46443H4.93262V18.0315H1.07548ZM7.06969 18.0315H10.9268V11.5726C10.9268 11.1686 10.9732 10.8569 11.0658 10.6376C11.228 10.2451 11.4741 9.91319 11.8042 9.64192C12.1344 9.37063 12.5484 9.23499 13.0465 9.23499C14.3438 9.23499 14.9925 10.1066 14.9925 11.8497V18.0315H18.8496V11.3995C18.8496 9.69097 18.4442 8.39516 17.6334 7.51205C16.8226 6.62893 15.7512 6.18737 14.4191 6.18737C12.9249 6.18737 11.7608 6.82806 10.9268 8.10945V8.14408H10.9095L10.9268 8.10945V6.46443H7.06969C7.09285 6.83383 7.10444 7.98245 7.10444 9.91031C7.10444 11.8382 7.09285 14.5452 7.06969 18.0315Z" fill="#657C91"/>
</svg>
