<svg width="89" height="34" viewBox="0 0 89 34" fill="none" xmlns="http://www.w3.org/2000/svg">
<g clip-path="url(#clip0_0_513)">
<path d="M17.3051 14.1525H20.3583C25.4203 14.1525 27.9914 15.2774 27.9914 18.1699C27.9914 20.8214 25.9023 21.8659 22.6884 21.8659C21.8046 21.8659 18.9121 21.8659 17.7872 21.8659L12.1629 25.8029H22.6884C28.9555 25.8029 33.214 23.5532 33.214 18.3306C33.214 13.7508 29.4376 11.9832 26.1434 11.9832C28.4735 11.9832 31.2053 9.89412 31.2053 6.43917C31.2053 2.90387 27.9914 0.413086 24.2954 0.413086H13.6091H11.2791L12.1629 2.50211V24.0353L17.3051 20.4197V14.1525ZM17.3051 4.35012H22.6884C24.1347 4.35012 26.063 4.67151 26.063 7.24264C26.063 9.73342 23.4116 10.7779 21.4029 10.7779H17.3051V4.35012Z" fill="#21409A"/>
<path d="M41.6505 4.35012H45.1858C46.6321 4.35012 54.024 4.75186 54.024 13.1884C54.024 22.8301 45.1858 22.0266 45.1858 22.0266H42.1326L36.5082 25.9637H46.6321C52.8992 25.9637 59.327 22.107 59.327 13.1884C59.327 5.31429 53.7027 0.413086 46.6321 0.413086H35.5441L36.5082 2.50211V24.0353L41.6505 20.4197V4.35012Z" fill="#21409A"/>
<path d="M61.657 13.1081C61.657 23.3123 69.8525 26.1245 75.1554 26.1245C80.4584 26.1245 88.6538 23.2319 88.6538 13.1081C88.7342 2.98432 80.5387 0.0917969 75.2357 0.0917969C69.9328 0.0917969 61.657 2.98432 61.657 13.1081ZM67.0403 13.1081C67.0403 5.87684 72.0218 3.86815 75.2357 3.86815C78.4497 3.86815 83.4312 5.87684 83.4312 13.1081C83.4312 20.3394 78.4497 22.3481 75.2357 22.3481C72.0218 22.3481 67.0403 20.3394 67.0403 13.1081Z" fill="#21409A"/>
<path d="M5.57433 0.413086H0.592773V32.1504L5.57433 28.6151V0.413086Z" fill="#E81A3B"/>
<path d="M88.4932 29.8206H6.5385L0.592773 33.9986H88.4932V29.8206Z" fill="#E81A3B"/>
</g>
<defs>
<clipPath id="clip0_0_513">
<rect width="88.0617" height="33.9067" fill="white" transform="translate(0.592773 0.0917969)"/>
</clipPath>
</defs>
</svg>
