<svg width="9" height="6" viewBox="0 0 9 6" fill="none" xmlns="http://www.w3.org/2000/svg">
<path d="M4.59308 5.71192C4.15111 5.71218 3.72714 5.53688 3.41441 5.22458L0.592883 2.40252C0.202357 2.01192 0.202554 1.37859 0.593209 0.988117C0.98376 0.59775 1.61689 0.597731 2.00735 0.98819L3.88597 2.86681C4.27649 3.25733 4.90966 3.25733 5.30018 2.86681L6.23941 1.92758L7.1788 0.98819C7.56926 0.597731 8.20236 0.597716 8.59291 0.988083C8.98359 1.37858 8.98373 2.01193 8.59314 2.40252L5.77174 5.22392C5.61695 5.37867 5.43318 5.50142 5.23095 5.58515C5.02871 5.66888 4.81196 5.71196 4.59308 5.71192Z" fill="#E81A3B"/>
</svg>
